<?xml version="1.0" encoding="utf-8"?>
<!-- Generator: Adobe Illustrator 27.8.1, SVG Export Plug-In . SVG Version: 6.00 Build 0)  -->
<svg version="1.1" id="Layer_1" xmlns="http://www.w3.org/2000/svg" xmlns:xlink="http://www.w3.org/1999/xlink" x="0px" y="0px"
	 viewBox="0 0 1000 1000" style="enable-background:new 0 0 1000 1000;" xml:space="preserve">
<style type="text/css">
	.st0{fill:#00BF63;}
</style>
<g>
	<path d="M947.82,246.58v559.58c0,8.5-0.75,16.81-2.2,24.9c-11.73,65.81-69.2,115.78-138.37,115.88l-14.9,0.03v-0.04l-599.21,0.94
		c-75.41,0.12-137.04-59.08-140.81-133.54c-0.12-2.4-0.19-4.81-0.19-7.24V614.31h142.12v191.64h611.55v-34.12h0.01V246.58H947.82z"
		/>
	<path d="M194.09,194.13v138.8h418.2c77.92,0,141.08,63.16,141.08,141.08v137.76c0,78.27-63.45,141.72-141.72,141.72H246.44V613.73
		h364.93V474.92H194.48c-78.26,0-141.71-63.44-141.71-141.71V193.77c0-78.22,63.41-141.63,141.63-141.63h558.97v142H194.09z"/>
	<path class="st0" d="M805.73,194.13h142.13v-36.09c0-58.49-47.42-105.91-105.91-105.91h-36.22V194.13z"/>
</g>
</svg>
